<svg width="668" height="224" viewBox="0 0 668 224" fill="none" xmlns="http://www.w3.org/2000/svg">
<path d="M12.6033 99.4611L0.18466 162.775C-0.878675 168.055 2.55209 171.432 13.0343 171.432C22.6603 171.432 28.016 168.48 29.2976 162.775L41.7164 99.4611C43.6416 89.3262 51.3422 83.2078 59.9105 83.2078C65.2495 83.2078 69.7491 85.3152 72.9615 89.7509C76.1683 93.7619 82.8059 92.918 89.6504 87.2133C95.4372 82.3693 97.1496 77.5085 94.5752 72.8686C88.3743 63.3737 77.8865 58.7283 62.6864 58.7283C37.0096 58.7283 17.5226 74.7665 12.6033 99.4611ZM300.23 67.5997C291.443 74.1374 286.099 81.7402 284.179 90.8103L283.961 92.2889C283.11 97.5688 286.322 100.94 296.799 100.94C306.655 100.94 312.005 97.9826 313.068 92.2889L313.286 91.6545C314.35 85.9609 320.137 81.3099 327.843 81.3099C335.544 81.3099 339.618 85.5361 338.113 92.9179L337.693 96.09C337.044 98.832 333.619 100.73 327.199 102.214L308.58 106.429C289.104 110.859 277.754 120.989 274.553 136.608C272.622 146.108 274.978 154.329 281.19 161.308C287.604 168.061 297.017 171.435 309.431 171.432C321.631 171.432 332.331 168.061 341.538 161.512C350.957 154.974 356.95 145.264 359.519 132.807L366.587 96.9288C371.07 73.0839 357.588 57.8899 331.906 57.8899C319.706 57.8899 309.011 61.0564 300.23 67.5997ZM303.442 137.458C304.511 132.387 308.149 129.016 314.355 127.538L326.125 124.58C329.337 123.734 331.479 122.889 332.55 122.043L329.975 134.704C328.487 142.941 322.924 148.012 314.574 148.012C306.867 148.012 302.373 143.995 303.437 137.458M111.6 68.4385C101.963 75.4066 95.9744 84.9013 93.6183 97.3534L86.9864 131.957C84.412 144.415 86.5518 154.127 93.4056 161.093C100.256 168.055 109.669 171.432 121.444 171.432C133.214 171.432 143.701 168.055 153.333 161.093C162.97 154.125 169.171 144.414 171.745 131.962L178.377 97.3534C180.728 84.9013 178.584 75.1859 171.745 68.2233C164.895 61.2607 155.683 57.8899 143.92 57.8899C132.15 57.8899 121.226 61.4759 111.6 68.4385ZM115.875 132.177L122.944 97.144C125.294 77.7238 154.62 77.7238 149.477 97.144L142.425 132.177C141.239 141.888 133.32 146.743 126.341 146.743C119.357 146.743 113.301 141.888 115.875 132.177ZM453.915 90.347C446.545 90.347 440.489 84.6972 431.278 84.6972C414.488 84.6972 404.694 99.2348 402.808 114.379C400.995 128.911 408.17 143.647 423.935 143.647C431.513 143.647 443.114 137.59 446.601 137.59C453.764 137.59 458.588 143.245 457.71 150.312C455.824 165.457 429.834 170.295 419.183 170.295C387.451 170.295 369.554 144.657 373.326 114.374C377.019 84.6918 402.036 58.0441 433.163 58.0441C444.832 58.0441 468.645 62.491 466.91 76.4161C466.155 82.4739 460.872 90.347 453.915 90.347ZM522.898 82.2754C509.791 82.2754 499.756 92.1673 496.796 104.482H543.678C543.65 91.5604 536.816 82.2754 522.898 82.2754ZM520.223 144.856C535.372 144.856 547.271 133.154 555.055 133.154C561.396 133.154 566.349 139.41 565.571 145.667C564.043 157.981 536.503 170.295 514.391 170.295C481.226 170.295 462.075 146.472 466.076 114.374C469.77 84.6973 494.792 58.0441 525.914 58.0441C557.853 58.0441 575.371 86.7165 572.354 110.942C571.274 119.626 566.853 123.863 557.848 123.863H494.994C495.43 138.401 506.299 144.856 520.223 144.856ZM609.397 12.4232C618.2 12.4232 623.333 18.8784 622.124 28.5664L606.644 152.933C605.435 162.627 598.697 169.087 589.888 169.087C581.085 169.087 575.953 162.627 577.162 152.933L592.647 28.5664C593.85 18.8784 600.594 12.4232 609.397 12.4232ZM654.852 12.4232C663.655 12.4232 668.787 18.8784 667.578 28.5664L652.098 152.933C650.89 162.627 644.146 169.087 635.337 169.087C626.539 169.087 621.402 162.627 622.611 152.933L638.096 28.5664C639.305 18.8784 646.049 12.4232 654.852 12.4232Z" fill="#21597B"/>
<path d="M323.118 2.42926L219.301 100.323L226.395 63.7908C227.481 58.4169 224.032 54.9654 213.49 54.9654C203.808 54.9654 198.43 57.9841 197.136 63.7908L178.425 160.128C177.344 165.507 180.787 168.942 191.33 168.942C197.563 168.942 201.996 167.688 204.719 165.243C204.86 165.271 205.079 165.131 205.501 164.647L229.017 137.974L241.708 160.291C246.378 168.947 254.732 168.947 264.408 168.947C274.956 168.947 277.122 165.507 274.068 160.128L248.999 115.315L337.289 15.2119C339.298 12.8903 339.59 8.46661 337.222 5.93706C336.13 4.77907 333.633 2.91264 332.395 1.74342C331.202 0.619171 329.751 0.000854492 328.221 0.000854492C326.522 0.000854492 324.733 0.75975 323.118 2.42926Z" fill="#FFAE2D"/>
<path d="M391.614 189.299H395.275V210.575L411.503 189.299H415.555V216.151H411.9V194.94L395.66 216.156H391.614V189.299ZM425.894 208.572L429.75 207.689C430.04 208.996 430.819 210.3 432.086 211.603C433.353 212.913 435.034 213.57 437.132 213.574C439.267 213.574 440.951 213.09 442.184 212.123C443.413 211.163 444.028 209.997 444.028 208.626C444.028 207.146 443.38 205.97 442.084 205.096C440.783 204.223 439.008 203.786 436.758 203.786H434.813V200.695C436.676 200.695 438.101 200.599 439.088 200.408C440.068 200.22 440.938 199.736 441.698 198.957C442.454 198.184 442.832 197.302 442.832 196.309C442.832 195.14 442.316 194.123 441.284 193.256C440.249 192.39 438.85 191.957 437.087 191.957C435.549 191.961 434.236 192.298 433.148 192.97C432.052 193.648 431.302 194.547 430.895 195.665C430.471 196.784 430.26 197.616 430.264 198.161L426.402 197.392C427.356 191.693 430.933 188.844 437.132 188.844C440.112 188.844 442.475 189.572 444.218 191.026C445.969 192.488 446.845 194.196 446.845 196.153C446.845 198.65 445.5 200.592 442.81 201.978C444.363 202.36 445.662 203.131 446.705 204.289C447.756 205.455 448.279 206.85 448.275 208.474C448.275 210.784 447.262 212.717 445.235 214.272C443.197 215.835 440.5 216.614 437.143 216.611C431.383 216.611 427.634 213.931 425.894 208.572ZM456.977 203.077C456.977 198.612 458.336 195.12 461.056 192.601C463.768 190.082 467.273 188.822 471.568 188.822C474.381 188.822 476.918 189.414 479.18 190.598C481.437 191.782 483.162 193.435 484.354 195.557C485.539 197.672 486.132 200.076 486.132 202.768C486.128 205.486 485.504 207.922 484.26 210.077C483 212.22 481.231 213.845 478.951 214.949C476.659 216.057 474.191 216.611 471.546 216.611C468.677 216.611 466.114 216.001 463.856 214.781C461.598 213.561 459.888 211.895 458.726 209.784C457.556 207.673 456.973 205.441 456.977 203.077ZM461.129 203.125C461.129 206.359 462.118 208.907 464.096 210.769C466.063 212.632 468.539 213.565 471.523 213.569C474.56 213.569 477.064 212.628 479.034 210.748C480.987 208.868 481.963 206.197 481.963 202.736C481.963 200.552 481.545 198.647 480.711 197.019C479.873 195.391 478.643 194.126 477.022 193.224C475.413 192.325 473.601 191.878 471.585 191.881C468.735 191.881 466.28 192.742 464.219 194.464C462.155 196.196 461.125 199.083 461.129 203.125ZM498.443 189.294H517.544V216.145H513.515V192.466H502.489V206.293C502.489 209.1 502.34 211.157 502.042 212.464C501.744 213.77 501.116 214.786 500.159 215.512C499.205 216.244 497.99 216.609 496.515 216.605C495.628 216.605 494.561 216.461 493.313 216.172L494.006 213.016C494.669 213.258 495.235 213.381 495.705 213.384C496.621 213.384 497.31 213.079 497.772 212.47C498.219 211.863 498.443 210.437 498.443 208.193V189.294ZM553.685 216.145V189.294H540.172C537.456 189.297 535.392 189.539 533.98 190.019C532.564 190.499 531.433 191.351 530.588 192.574C529.731 193.798 529.303 195.148 529.303 196.624C529.303 198.522 530.005 200.125 531.409 201.431C532.806 202.745 534.971 203.578 537.903 203.932C536.83 204.387 536.018 204.833 535.466 205.269C534.289 206.215 533.172 207.406 532.113 208.842L526.821 216.151H531.89L535.919 210.569C537.104 208.949 538.078 207.711 538.842 206.855C539.598 206.004 540.28 205.408 540.887 205.069C541.491 204.73 542.105 204.491 542.731 204.354C543.178 204.271 543.927 204.23 544.978 204.23H549.65V216.151L553.685 216.145ZM549.65 201.15H540.982C539.138 201.15 537.696 200.978 536.657 200.635C535.614 200.303 534.822 199.767 534.282 199.027C533.742 198.291 533.471 197.49 533.471 196.624C533.471 195.357 533.993 194.31 535.036 193.484C536.091 192.672 537.747 192.266 540.004 192.266H549.65V201.15ZM565.734 189.294H569.763V212.978H585.651V189.294H589.708V212.978H592.502V223.605H588.926V216.151H565.734V189.294ZM602.668 189.294H606.322V210.569L622.551 189.294H626.609V216.145H622.948V194.935L606.708 216.151H602.668V189.294ZM662.732 216.145V189.294H649.219C646.503 189.297 644.439 189.539 643.027 190.019C641.612 190.499 640.481 191.351 639.635 192.574C638.778 193.798 638.352 195.148 638.355 196.624C638.355 198.522 639.056 200.125 640.457 201.431C641.854 202.745 644.019 203.578 646.951 203.932C645.878 204.387 645.065 204.833 644.514 205.269C643.34 206.215 642.224 207.406 641.166 208.842L635.869 216.151H640.943L644.972 210.569C646.157 208.949 647.131 207.711 647.895 206.855C648.651 206.004 649.331 205.408 649.935 205.069C650.538 204.73 651.153 204.491 651.779 204.354C652.226 204.271 652.975 204.23 654.026 204.23H658.697V216.151L662.732 216.145ZM658.697 201.15H650.035C648.184 201.15 646.742 200.978 645.71 200.635C644.667 200.303 643.873 199.767 643.329 199.027C642.789 198.291 642.521 197.49 642.524 196.624C642.521 195.357 643.042 194.31 644.089 193.484C645.14 192.672 646.794 192.266 649.052 192.266H658.697V201.15Z" fill="#FFAE2D"/>
</svg>
