<svg width="38" height="50" viewBox="0 0 38 50" fill="none" xmlns="http://www.w3.org/2000/svg">
<path d="M29.0676 18.9387C30.8501 17.6652 32.3016 15.993 33.3033 14.0592C34.305 12.1254 34.8283 9.98487 34.8304 7.81299V6.25039H37.9968V0H0V6.25039H3.1664V7.81299C3.16611 9.97734 3.68463 12.1111 4.6796 14.0398C5.67457 15.9685 7.11776 17.6376 8.89126 18.9106C9.95126 19.5649 10.8435 20.4524 11.4983 21.5037C12.1531 22.5549 12.5526 23.7414 12.6656 24.9703C12.531 26.2268 12.1183 27.4387 11.4568 28.5204C10.7953 29.602 9.90109 30.5271 8.83743 31.2301C7.10402 32.5024 5.691 34.1519 4.70804 36.0505C3.72509 37.9491 3.19864 40.0457 3.16957 42.1776V43.7496H0.00316617V50H38V43.7496H34.8336V42.187C34.8094 40.066 34.2917 37.9789 33.3205 36.0867C32.3493 34.1945 30.9505 32.5478 29.2322 31.2738C28.1589 30.58 27.2535 29.6614 26.5804 28.5833C25.9073 27.5053 25.483 26.2941 25.3376 25.0359C25.4368 23.8089 25.8226 22.6213 26.4648 21.5662C27.107 20.511 27.9881 19.617 29.0391 18.9543L29.0676 18.9387ZM22.1648 25.0016C22.2726 26.7017 22.7597 28.3573 23.5911 29.85C24.4226 31.3427 25.578 32.6357 26.9746 33.6365C28.3731 34.6037 29.5247 35.8784 30.3385 37.3602C31.1524 38.8419 31.6061 40.49 31.664 42.1745V43.7527H26.0595C23.843 41.0338 20.6449 37.5023 18.9984 37.5023C17.3519 37.5023 14.1538 41.0338 11.9373 43.7527H6.33281V42.1901C6.38465 40.5159 6.82875 38.8762 7.63028 37.3998C8.4318 35.9233 9.56896 34.6502 10.9526 33.6802C12.3627 32.6852 13.5315 31.3936 14.3747 29.8988C15.218 28.404 15.7146 26.7431 15.8288 25.0359C15.7413 23.3732 15.2681 21.7525 14.4457 20.2988C13.6233 18.845 12.4737 17.5971 11.0856 16.651C9.62663 15.6692 8.43142 14.352 7.60291 12.8129C6.77439 11.2738 6.33742 9.55894 6.32964 7.81611V6.25352H31.6609V7.81611C31.6567 9.54564 31.2286 11.2485 30.4132 12.7793C29.5977 14.3102 28.419 15.6235 26.9778 16.6073C25.5798 17.5458 24.4187 18.7883 23.5837 20.2392C22.7488 21.6902 22.2623 23.3109 22.1616 24.9766L22.1648 25.0016Z" fill="#21597B"/>
</svg>
