<svg width="50" height="50" viewBox="0 0 50 50" fill="none" xmlns="http://www.w3.org/2000/svg">
<path d="M49.3089 6.54375C43.9027 2.44688 35.5808 0 27.0464 0C16.4933 0 7.89332 3.68437 3.45582 10.1094C1.37144 13.125 0.218319 16.7 0.0276941 20.7281C-0.141056 24.3156 0.462069 28.2844 1.81832 32.5531C6.44957 18.6656 19.3871 7.79375 34.3027 7.79375C34.3027 7.79375 20.3464 11.4656 11.5714 22.8438C9.56785 25.4229 7.96055 28.2868 6.80269 31.3406C4.32544 37.2429 3.05056 43.5802 3.05269 49.9813H9.30269C9.30269 49.9813 8.35269 44.0125 10.0027 37.15C12.4431 37.4955 14.9036 37.6803 17.3683 37.7031C23.1152 37.7031 27.1996 36.4594 30.2277 33.7906C32.9402 31.4 34.4371 28.1844 36.0214 24.7844C38.4402 19.5875 41.1808 13.7 49.1402 9.15313C49.3647 9.02503 49.554 8.84322 49.691 8.62399C49.828 8.40477 49.9085 8.15497 49.9252 7.89698C49.942 7.639 49.8944 7.3809 49.7868 7.14582C49.6793 6.91074 49.5151 6.70601 49.3089 6.55V6.54375Z" fill="#FFAE2D"/>
</svg>
