<svg width="43" height="50" viewBox="0 0 43 50" fill="none" xmlns="http://www.w3.org/2000/svg">
<path d="M3.12498 7.81275C3.12498 5.74068 3.94807 3.75348 5.41318 2.2883C6.8783 0.823127 8.86542 0 10.9374 0C13.0094 0 14.9965 0.823127 16.4616 2.2883C17.9267 3.75348 18.7498 5.74068 18.7498 7.81275V31.4073C20.2571 32.9457 21.2767 34.8949 21.6807 37.0104C22.0846 39.126 21.8551 41.3138 21.0208 43.2994C20.1864 45.285 18.7845 46.9801 16.9907 48.1721C15.1969 49.3641 13.0911 50 10.9374 50C8.78369 50 6.67792 49.3641 4.88413 48.1721C3.09034 46.9801 1.68838 45.285 0.854053 43.2994C0.0197228 41.3138 -0.209841 39.126 0.194148 37.0104C0.598136 34.8949 1.61769 32.9457 3.12498 31.4073V7.81275ZM10.9374 3.1251C9.69421 3.1251 8.50194 3.61898 7.62287 4.49808C6.7438 5.37719 6.24995 6.56951 6.24995 7.81275V32.7729L5.72808 33.2417C4.54863 34.2965 3.71724 35.6845 3.34395 37.2222C2.97065 38.7599 3.07304 40.3747 3.63756 41.8529C4.20209 43.3311 5.20213 44.603 6.50536 45.5004C7.80859 46.3977 9.35357 46.8782 10.9358 46.8782C12.5181 46.8782 14.0631 46.3977 15.3663 45.5004C16.6695 44.603 17.6696 43.3311 18.2341 41.8529C18.7986 40.3747 18.901 38.7599 18.5277 37.2222C18.1544 35.6845 17.3231 34.2965 16.1436 33.2417L15.6249 32.7698V7.81275C15.6249 6.56951 15.131 5.37719 14.2519 4.49808C13.3729 3.61898 12.1806 3.1251 10.9374 3.1251ZM26.5623 6.2502C26.9767 6.2502 27.3741 6.41482 27.6671 6.70786C27.9601 7.0009 28.1247 7.39833 28.1247 7.81275V11.8535L30.1435 9.83156C30.4369 9.53816 30.8348 9.37333 31.2497 9.37333C31.6646 9.37333 32.0626 9.53816 32.3559 9.83156C32.6493 10.125 32.8142 10.5229 32.8142 10.9378C32.8142 11.3528 32.6493 11.7507 32.3559 12.0441L28.1247 16.2724V22.2945L33.3403 19.285L34.8872 13.5036C34.9405 13.3053 35.0324 13.1196 35.1575 12.9568C35.2827 12.7941 35.4386 12.6577 35.6165 12.5552C35.7944 12.4528 35.9907 12.3864 36.1943 12.3598C36.3978 12.3333 36.6046 12.347 36.8028 12.4004C37.001 12.4537 37.1868 12.5456 37.3495 12.6708C37.5122 12.7959 37.6486 12.9519 37.7511 13.1298C37.8535 13.3077 37.9199 13.504 37.9465 13.7075C37.973 13.9111 37.9592 14.1179 37.9059 14.3161L37.1653 17.0724L40.6652 15.0536C41.0239 14.8497 41.4487 14.7959 41.8469 14.904C42.2451 15.0121 42.5843 15.2733 42.7907 15.6307C42.997 15.988 43.0536 16.4124 42.9481 16.8113C42.8426 17.2103 42.5837 17.5513 42.2277 17.7599L38.7278 19.7788L41.4902 20.5194C41.6884 20.5728 41.8742 20.6646 42.0369 20.7898C42.1996 20.9149 42.3361 21.0709 42.4385 21.2488C42.541 21.4267 42.6074 21.623 42.6339 21.8265C42.6605 22.0301 42.6467 22.2369 42.5933 22.4351C42.54 22.6333 42.4481 22.8191 42.323 22.9818C42.1979 23.1445 42.0419 23.281 41.864 23.3834C41.6861 23.4859 41.4898 23.5523 41.2863 23.5788C41.0827 23.6054 40.876 23.5916 40.6777 23.5382L34.9028 21.9913L29.6872 25.0008L34.9028 28.0103L40.6809 26.4633C40.8803 26.4065 41.0891 26.3899 41.295 26.4146C41.5009 26.4392 41.6999 26.5046 41.8802 26.6069C42.0606 26.7093 42.2188 26.8465 42.3456 27.0106C42.4724 27.1747 42.5653 27.3625 42.6188 27.5628C42.6723 27.7632 42.6854 27.9722 42.6573 28.1777C42.6292 28.3832 42.5605 28.581 42.4552 28.7597C42.3498 28.9383 42.21 29.0942 42.0438 29.2183C41.8776 29.3423 41.6883 29.432 41.4871 29.4822L38.7278 30.2228L42.2277 32.2417C42.5837 32.4503 42.8426 32.7913 42.9481 33.1902C43.0536 33.5892 42.997 34.0136 42.7907 34.3709C42.5843 34.7283 42.2451 34.9895 41.8469 35.0976C41.4487 35.2057 41.0239 35.1519 40.6652 34.948L37.1653 32.9292L37.9059 35.6886C37.9628 35.8881 37.9793 36.0969 37.9547 36.3028C37.93 36.5087 37.8646 36.7077 37.7623 36.8881C37.66 37.0685 37.5227 37.2267 37.3586 37.3535C37.1945 37.4803 37.0068 37.5732 36.8065 37.6267C36.6061 37.6802 36.3971 37.6933 36.1916 37.6652C35.9861 37.6371 35.7883 37.5684 35.6097 37.463C35.431 37.3577 35.2751 37.2178 35.1511 37.0516C35.027 36.8854 34.9373 36.6962 34.8872 36.4949L33.3434 30.7197L28.1247 27.7071V33.7292L32.3559 37.9575C32.5012 38.1027 32.6165 38.2752 32.6951 38.465C32.7737 38.6548 32.8142 38.8583 32.8142 39.0637C32.8142 39.2692 32.7737 39.4726 32.6951 39.6625C32.6165 39.8523 32.5012 40.0248 32.3559 40.17C32.2107 40.3153 32.0382 40.4306 31.8484 40.5092C31.6586 40.5878 31.4552 40.6283 31.2497 40.6283C31.0443 40.6283 30.8408 40.5878 30.651 40.5092C30.4612 40.4306 30.2887 40.3153 30.1435 40.17L28.1247 38.1481V42.1888C28.1247 42.6033 27.9601 43.0007 27.6671 43.2937C27.3741 43.5868 26.9767 43.7514 26.5623 43.7514C26.1479 43.7514 25.7504 43.5868 25.4574 43.2937C25.1644 43.0007 24.9998 42.6033 24.9998 42.1888V7.81275C24.9998 7.39833 25.1644 7.0009 25.4574 6.70786C25.7504 6.41482 26.1479 6.2502 26.5623 6.2502Z" fill="#21597B"/>
</svg>
