<svg width="94" height="94" viewBox="0 0 94 94" fill="none" xmlns="http://www.w3.org/2000/svg">
<g clip-path="url(#clip0_1052_11831)">
<path d="M94 47C94 21.0428 72.9572 0 47 0C21.0428 0 0 21.0428 0 47C0 70.4589 17.1873 89.9033 39.6562 93.429V60.5859H27.7227V47H39.6562V36.6453C39.6562 24.8659 46.6732 18.3594 57.409 18.3594C62.5511 18.3594 67.9297 19.2773 67.9297 19.2773V30.8438H62.0033C56.1646 30.8438 54.3438 34.4668 54.3438 38.1838V47H67.3789L65.2951 60.5859H54.3438V93.429C76.8127 89.9033 94 70.4592 94 47Z" fill="#1877F2"/>
<path d="M65.2951 60.5859L67.3789 47H54.3438V38.1838C54.3438 34.4664 56.1646 30.8438 62.0033 30.8438H67.9297V19.2773C67.9297 19.2773 62.5511 18.3594 57.4087 18.3594C46.6732 18.3594 39.6562 24.8659 39.6562 36.6453V47H27.7227V60.5859H39.6562V93.429C42.0856 93.8097 44.541 94.0006 47 94C49.459 94.0006 51.9144 93.8097 54.3438 93.429V60.5859H65.2951Z" fill="white"/>
</g>
<defs>
<clipPath id="clip0_1052_11831">
<rect width="94" height="94" fill="white"/>
</clipPath>
</defs>
</svg>
