<svg width="218" height="71" viewBox="0 0 218 71" fill="none" xmlns="http://www.w3.org/2000/svg">
<path d="M103.648 0.786183L69.9302 32.5116L72.2359 20.6732C72.5869 18.9313 71.4683 17.8138 68.0437 17.8138C64.8991 17.8138 63.1524 18.7899 62.7327 20.6732L56.6552 51.8936C56.3056 53.6372 57.4238 54.7505 60.8459 54.7505C62.8719 54.7505 64.3105 54.3428 65.1948 53.5504C65.2399 53.5605 65.3122 53.5148 65.4488 53.3579L73.0883 44.7141L77.2088 51.9474C78.7247 54.7505 81.4384 54.7505 84.5806 54.7505C88.0068 54.7505 88.7098 53.637 87.7182 51.8936L79.576 37.3705L108.25 4.92884C108.902 4.17634 108.997 2.74322 108.229 1.92441C107.873 1.54784 107.062 0.943548 106.661 0.564423C106.273 0.200437 105.802 0 105.306 0C104.755 0 104.174 0.245642 103.648 0.78597L103.648 0.786183Z" fill="#FFAE2D"/>
<path d="M4.11466 30.9873L0.0610155 51.8938C-0.288547 53.6374 0.831763 54.7515 4.2547 54.7515C7.39905 54.7515 9.14665 53.7768 9.56505 51.8938L13.6191 30.9873C14.2477 27.6415 16.7628 25.6203 19.5595 25.6203C21.3022 25.6203 22.7704 26.3165 23.8189 27.7809C24.8665 29.1064 27.0331 28.8266 29.2669 26.9451C31.1565 25.3444 31.7158 23.7396 30.8775 22.2079C28.8509 19.0709 25.4271 17.5371 20.4656 17.5371C12.0817 17.5371 5.72072 22.834 4.11466 30.9873Z" fill="white"/>
<path d="M98.0149 20.4655C95.1478 22.624 93.4028 25.1348 92.7751 28.1307L92.7047 28.6182C92.4266 30.3618 93.474 31.4752 96.896 31.4752C100.113 31.4752 101.859 30.4991 102.207 28.6182L102.278 28.4086C102.626 26.5285 104.514 24.9939 107.03 24.9939C109.544 24.9939 110.873 26.388 110.383 28.8271L110.246 29.8737C110.034 30.7786 108.915 31.4059 106.82 31.8949L100.741 33.2875C94.3833 34.7496 90.6773 38.0948 89.6311 43.2526C89.0017 46.3888 89.7703 49.1048 91.7984 51.4077C93.893 53.637 96.967 54.7505 101.019 54.7505C105.003 54.7505 108.495 53.637 111.5 51.4763C114.576 49.3165 116.533 46.111 117.371 41.9978L119.678 30.1517C121.142 22.2784 116.74 17.2598 108.357 17.2598C104.374 17.2598 100.882 18.3063 98.0146 20.4661L98.0149 20.4655ZM99.0633 43.5335C99.4129 41.8587 100.601 40.745 102.626 40.2584L106.468 39.2812C107.518 39.0015 108.217 38.723 108.567 38.4436L107.728 42.624C107.24 45.344 105.423 47.0172 102.697 47.0172C100.182 47.0172 98.7155 45.6911 99.0636 43.5333L99.0633 43.5335Z" fill="white"/>
<path d="M36.4339 20.7446C33.2879 23.0449 31.3324 26.1803 30.5638 30.292L28.3974 41.718C27.5597 45.8306 28.2559 49.0378 30.4935 51.3386C32.73 53.6374 35.8036 54.7509 39.6473 54.7509C43.4891 54.7509 46.9137 53.6372 50.0583 51.3386C53.2037 49.0376 55.2293 45.8304 56.0684 41.718L58.2331 30.292C59.002 26.1803 58.3022 22.9724 56.0684 20.6736C53.8329 18.3741 50.8267 17.2598 46.9839 17.2598C43.1421 17.2598 39.5761 18.4436 36.4337 20.7446H36.4339ZM37.8287 41.7903L40.1376 30.2219C40.903 23.8113 50.4791 23.8113 48.7994 30.2219L46.4955 41.7903C46.1092 44.9958 43.5244 46.5982 41.2455 46.5982C38.9655 46.5982 36.9904 44.9958 37.8285 41.7903H37.8287Z" fill="white"/>
<path d="M148.188 27.9781C145.782 27.9781 143.806 26.1111 140.798 26.1111C135.317 26.1111 132.119 30.9107 131.504 35.9112C130.912 40.7106 133.254 45.5763 138.401 45.5763C140.875 45.5763 144.663 43.5762 145.8 43.5762C148.14 43.5762 149.714 45.4432 149.427 47.7768C148.811 52.7769 140.326 54.3761 136.85 54.3761C126.49 54.3761 120.648 45.9104 121.879 35.9114C123.085 26.1113 131.253 17.3125 141.414 17.3125C145.223 17.3125 152.997 18.7791 152.431 23.3791C152.184 25.3784 150.46 27.9783 148.188 27.9783V27.9781Z" fill="white"/>
<path d="M170.708 25.3121C166.431 25.3121 163.155 28.5779 162.187 32.6451H177.493C177.484 28.3781 175.253 25.3121 170.708 25.3121H170.708ZM169.835 45.9767C174.782 45.9767 178.666 42.1113 181.207 42.1113C183.278 42.1113 184.896 44.1777 184.641 46.2439C184.141 50.3104 175.151 54.3761 167.933 54.3761C157.105 54.3761 150.853 46.5109 152.158 35.9114C153.365 26.1119 161.534 17.3125 171.693 17.3125C182.121 17.3125 187.839 26.7783 186.854 34.7776C186.502 37.6449 185.06 39.0446 182.118 39.0446H161.599C161.743 43.8442 165.29 45.9767 169.836 45.9767H169.835Z" fill="white"/>
<path d="M198.949 2.24805C201.824 2.24805 203.498 4.38057 203.104 7.57989L198.05 48.645C197.656 51.8443 195.454 53.9777 192.58 53.9777C189.706 53.9777 188.03 51.8441 188.424 48.645L193.48 7.57989C193.874 4.38057 196.075 2.24805 198.949 2.24805Z" fill="white"/>
<path d="M213.787 2.24805C216.661 2.24805 218.337 4.38057 217.943 7.57989L212.888 48.645C212.494 51.8443 210.293 53.9777 207.418 53.9777C204.544 53.9777 202.868 51.8441 203.262 48.645L208.318 7.57989C208.712 4.38057 210.913 2.24805 213.787 2.24805Z" fill="white"/>
<path d="M122.441 61.502H123.475V70.8206H122.441V61.502Z" fill="#FFAE2D"/>
<path d="M127.961 61.502H128.766L133.708 69.0292C133.688 68.707 133.678 68.2703 133.678 67.7191V61.5022H134.712V70.821H133.83L128.934 63.4189C128.975 63.8501 128.995 64.2912 128.995 64.742V70.821H127.961V61.5022V61.502Z" fill="#FFAE2D"/>
<path d="M138.772 69.6758C139.776 69.979 140.673 70.1304 141.463 70.1304C142.042 70.1304 142.535 69.9856 142.946 69.6961C143.356 69.4067 143.562 68.995 143.562 68.4625C143.562 68.1226 143.474 67.8241 143.295 67.5667C143.119 67.3092 142.89 67.1002 142.612 66.9396C142.333 66.7784 142.023 66.6294 141.685 66.4914L140.657 66.0571C140.313 65.9055 140.001 65.7357 139.723 65.5472C139.444 65.3583 139.215 65.1056 139.039 64.7894C138.86 64.4719 138.772 64.1024 138.772 63.6797C138.772 62.9714 139.056 62.4016 139.623 61.9694C140.191 61.5376 140.926 61.3223 141.828 61.3223C142.659 61.3223 143.506 61.4688 144.367 61.7637L144.109 62.5901C143.186 62.3236 142.426 62.1903 141.828 62.1903C141.21 62.1903 140.723 62.3166 140.369 62.5701C140.014 62.8217 139.836 63.1827 139.836 63.6514C139.836 64.0834 140.001 64.442 140.33 64.7267C140.66 65.0122 141.06 65.2461 141.531 65.4302C142.003 65.6144 142.472 65.8091 142.938 66.0157C143.404 66.2223 143.802 66.5281 144.131 66.9319C144.461 67.3367 144.626 67.838 144.626 68.4352C144.626 69.244 144.324 69.8733 143.721 70.324C143.118 70.7737 142.366 70.9993 141.463 70.9993C140.581 70.9993 139.623 70.8432 138.59 70.5306L138.772 69.676L138.772 69.6758Z" fill="#FFAE2D"/>
<path d="M148.429 61.502H149.462V67.843C149.462 68.5049 149.693 69.0516 150.154 69.4836C150.615 69.9156 151.206 70.1314 151.926 70.1314C152.635 70.1314 153.218 69.9156 153.674 69.4836C154.13 69.0516 154.358 68.5049 154.358 67.843V61.502H155.377V67.8852C155.377 68.7953 155.043 69.5416 154.374 70.1244C153.704 70.7086 152.889 71.0003 151.926 71.0003C150.942 71.0003 150.114 70.7088 149.44 70.1244C148.766 69.5414 148.429 68.7951 148.429 67.8852V61.502Z" fill="#FFAE2D"/>
<path d="M159.788 61.502H160.821V69.9523H165.383L165.277 70.8208H159.788V61.502Z" fill="#FFAE2D"/>
<path d="M173.959 67.347L172.758 63.9144C172.687 63.7302 172.535 63.2526 172.302 62.4805C172.181 62.9219 172.028 63.3997 171.846 63.9144L170.629 67.347H173.959ZM171.709 61.502H172.895L176.255 70.8208H175.191L174.248 68.1744H170.34L169.414 70.8208H168.349L171.709 61.502Z" fill="#FFAE2D"/>
<path d="M180.817 62.3704H177.929V61.502H184.741V62.3704H181.851V70.8206H180.817V62.3704Z" fill="#FFAE2D"/>
<path d="M188.39 61.502H189.424V70.8206H188.39V61.502Z" fill="#FFAE2D"/>
<path d="M195.37 69.4007C195.856 69.8873 196.5 70.1315 197.301 70.1315C198.102 70.1315 198.742 69.8873 199.224 69.4007C199.705 68.9133 199.947 68.2015 199.947 67.2633V65.0854C199.947 64.1303 199.705 63.4083 199.224 62.9217C198.742 62.4343 198.102 62.191 197.301 62.191C196.5 62.191 195.856 62.4368 195.37 62.9287C194.884 63.4198 194.64 64.1388 194.64 65.0854V67.2633C194.64 68.2013 194.884 68.9133 195.37 69.4007ZM193.606 65.0442C193.606 63.8497 193.953 62.9311 194.648 62.2869C195.343 61.6438 196.227 61.3223 197.301 61.3223C198.365 61.3223 199.244 61.6438 199.939 62.2869C200.633 62.9311 200.981 63.8497 200.981 65.0442V67.3047C200.981 68.5003 200.633 69.415 199.939 70.049C199.244 70.6829 198.365 71.0002 197.301 71.0002C196.227 71.0002 195.343 70.6829 194.648 70.049C193.953 69.4148 193.606 68.5003 193.606 67.3047V65.0442Z" fill="#FFAE2D"/>
<path d="M205.164 61.502H205.969L210.911 69.0292C210.89 68.707 210.881 68.2703 210.881 67.7191V61.5022H211.914V70.821H211.032L206.136 63.4189C206.177 63.8501 206.197 64.2912 206.197 64.742V70.821H205.164V61.5022V61.502Z" fill="#FFAE2D"/>
</svg>
