<svg width="38" height="50" viewBox="0 0 38 50" fill="none" xmlns="http://www.w3.org/2000/svg">
<path d="M19 50C29.4943 50 38 43.75 38 32.8125C38 28.125 36.4167 20.3125 30.0833 14.0625C30.875 18.75 26.125 20.3125 26.125 20.3125C28.5 12.5 22.1667 1.5625 12.6667 0C13.7972 6.25 14.25 12.5 6.33333 18.75C2.375 21.875 0 27.2781 0 32.8125C0 43.75 8.50567 50 19 50ZM19 46.875C13.7528 46.875 9.5 43.75 9.5 38.2812C9.5 35.9375 10.2917 32.0312 13.4583 28.9062C13.0625 31.25 15.8333 32.8125 15.8333 32.8125C14.6458 28.9062 17.4167 22.6562 22.1667 21.875C21.5998 25 21.375 28.125 25.3333 31.25C27.3125 32.8125 28.5 35.5125 28.5 38.2812C28.5 43.75 24.2472 46.875 19 46.875Z" fill="#FFAE2D"/>
</svg>
