<svg width="94" height="94" viewBox="0 0 94 94" fill="none" xmlns="http://www.w3.org/2000/svg">
<g clip-path="url(#clip0_1052_11826)">
<path d="M71.9688 0H22.0312C9.86373 0 0 9.86373 0 22.0312V71.9688C0 84.1363 9.86373 94 22.0312 94H71.9688C84.1363 94 94 84.1363 94 71.9688V22.0312C94 9.86373 84.1363 0 71.9688 0Z" fill="url(#paint0_radial_1052_11826)"/>
<path d="M71.9688 0H22.0312C9.86373 0 0 9.86373 0 22.0312V71.9688C0 84.1363 9.86373 94 22.0312 94H71.9688C84.1363 94 94 84.1363 94 71.9688V22.0312C94 9.86373 84.1363 0 71.9688 0Z" fill="url(#paint1_radial_1052_11826)"/>
<path d="M47.0033 10.2812C37.0312 10.2812 35.7795 10.3249 31.8631 10.503C27.954 10.6822 25.2856 11.3009 22.9511 12.209C20.5357 13.1468 18.4872 14.4015 16.4463 16.443C14.4037 18.4842 13.149 20.5328 12.2083 22.947C11.2976 25.2823 10.6782 27.9518 10.5023 31.859C10.3271 35.7758 10.2812 37.0279 10.2812 47.0004C10.2812 56.9728 10.3253 58.2205 10.503 62.1369C10.683 66.046 11.3017 68.7144 12.209 71.0489C13.1475 73.4643 14.4022 75.5128 16.4438 77.5537C18.4842 79.5963 20.5328 80.854 22.9463 81.7917C25.2827 82.6998 27.9514 83.3185 31.8598 83.4977C35.7765 83.6758 37.0272 83.7195 46.9989 83.7195C56.9721 83.7195 58.2198 83.6758 62.1362 83.4977C66.0453 83.3185 68.7166 82.6998 71.053 81.7917C73.4672 80.854 75.5128 79.5963 77.5529 77.5537C79.5956 75.5128 80.8499 73.4643 81.791 71.05C82.6936 68.7144 83.3134 66.0453 83.497 62.1377C83.6729 58.2212 83.7188 56.9728 83.7188 47.0004C83.7188 37.0279 83.6729 35.7765 83.497 31.8598C83.3134 27.9507 82.6936 25.2827 81.791 22.9481C80.8499 20.5328 79.5956 18.4842 77.5529 16.443C75.5106 14.4007 73.468 13.146 71.0508 12.2094C68.71 11.3009 66.0401 10.6819 62.1311 10.503C58.2143 10.3249 56.9673 10.2812 46.9919 10.2812H47.0033ZM43.7093 16.8983C44.6871 16.8969 45.778 16.8983 47.0033 16.8983C56.8076 16.8983 57.9694 16.9336 61.841 17.1095C65.4211 17.2732 67.3642 17.8714 68.6586 18.3741C70.3722 19.0394 71.5939 19.8351 72.8783 21.1206C74.1634 22.4058 74.9588 23.6296 75.6259 25.3433C76.1286 26.6358 76.7275 28.5789 76.8905 32.159C77.0664 36.0299 77.1046 37.1924 77.1046 46.9919C77.1046 56.7914 77.0664 57.9543 76.8905 61.8248C76.7268 65.4049 76.1286 67.3481 75.6259 68.6409C74.9606 70.3546 74.1634 71.5748 72.8783 72.8592C71.5931 74.1443 70.373 74.9397 68.6586 75.6054C67.3657 76.1103 65.4211 76.7069 61.841 76.8707C57.9701 77.0466 56.8076 77.0848 47.0033 77.0848C37.1987 77.0848 36.0365 77.0466 32.166 76.8707C28.5859 76.7055 26.6428 76.1073 25.3473 75.6046C23.634 74.9389 22.4098 74.1436 21.1247 72.8584C19.8395 71.5733 19.0442 70.3524 18.377 68.638C17.8743 67.3451 17.2754 65.402 17.1124 61.8219C16.9365 57.951 16.9013 56.7885 16.9013 46.9827C16.9013 37.177 16.9365 36.0207 17.1124 32.1498C17.2762 28.5698 17.8743 26.6266 18.377 25.3323C19.0427 23.6186 19.8395 22.3948 21.125 21.1096C22.4106 19.8245 23.634 19.0288 25.3477 18.3619C26.642 17.8571 28.5859 17.2604 32.166 17.0959C35.5533 16.9428 36.866 16.8969 43.7093 16.8892V16.8983ZM66.6038 22.9951C64.1712 22.9951 62.1975 24.9669 62.1975 27.3999C62.1975 29.8325 64.1712 31.8061 66.6038 31.8061C69.0364 31.8061 71.01 29.8325 71.01 27.3999C71.01 24.9673 69.0364 22.9936 66.6038 22.9936V22.9951ZM47.0033 28.1435C36.5899 28.1435 28.1468 36.5866 28.1468 47.0004C28.1468 57.4142 36.5899 65.8532 47.0033 65.8532C57.4171 65.8532 65.8573 57.4142 65.8573 47.0004C65.8573 36.5869 57.4164 28.1435 47.0026 28.1435H47.0033ZM47.0033 34.7605C53.7629 34.7605 59.2431 40.2401 59.2431 47.0004C59.2431 53.7599 53.7629 59.2402 47.0033 59.2402C40.2438 59.2402 34.7638 53.7599 34.7638 47.0004C34.7638 40.2401 40.2434 34.7605 47.0033 34.7605Z" fill="white"/>
</g>
<defs>
<radialGradient id="paint0_radial_1052_11826" cx="0" cy="0" r="1" gradientUnits="userSpaceOnUse" gradientTransform="translate(24.9687 101.24) rotate(-90) scale(93.161 86.6471)">
<stop stop-color="#FFDD55"/>
<stop offset="0.1" stop-color="#FFDD55"/>
<stop offset="0.5" stop-color="#FF543E"/>
<stop offset="1" stop-color="#C837AB"/>
</radialGradient>
<radialGradient id="paint1_radial_1052_11826" cx="0" cy="0" r="1" gradientUnits="userSpaceOnUse" gradientTransform="translate(-15.7454 6.7713) rotate(78.681) scale(41.6435 171.656)">
<stop stop-color="#3771C8"/>
<stop offset="0.128" stop-color="#3771C8"/>
<stop offset="1" stop-color="#6600FF" stop-opacity="0"/>
</radialGradient>
<clipPath id="clip0_1052_11826">
<rect width="94" height="94" fill="white"/>
</clipPath>
</defs>
</svg>
