<svg width="70" height="70" viewBox="0 0 70 70" fill="none" xmlns="http://www.w3.org/2000/svg">
  <rect width="70" height="70" rx="35" fill="url(#paint0_radial_1115_10507)" />
  <path
    d="M35 20.6627C39.6386 20.6627 40.2711 20.6627 42.1687 20.6627C43.8554 20.6627 44.6988 21.0843 45.3313 21.2952C46.1747 21.7169 46.8072 21.9277 47.4398 22.5602C48.0723 23.1928 48.494 23.8253 48.7048 24.6687C48.9157 25.3012 49.1265 26.1446 49.3374 27.8313C49.3374 29.7289 49.3374 30.1506 49.3374 35C49.3374 39.8494 49.3374 40.2711 49.3374 42.1687C49.3374 43.8554 48.9157 44.6988 48.7048 45.3313C48.2831 46.1747 48.0723 46.8072 47.4398 47.4398C46.8072 48.0723 46.1747 48.494 45.3313 48.7048C44.6988 48.9157 43.8554 49.1265 42.1687 49.3374C40.2711 49.3374 39.8494 49.3374 35 49.3374C30.1506 49.3374 29.7289 49.3374 27.8313 49.3374C26.1446 49.3374 25.3012 48.9157 24.6687 48.7048C23.8253 48.2831 23.1928 48.0723 22.5602 47.4398C21.9277 46.8072 21.506 46.1747 21.2952 45.3313C21.0843 44.6988 20.8735 43.8554 20.6627 42.1687C20.6627 40.2711 20.6627 39.8494 20.6627 35C20.6627 30.1506 20.6627 29.7289 20.6627 27.8313C20.6627 26.1446 21.0843 25.3012 21.2952 24.6687C21.7169 23.8253 21.9277 23.1928 22.5602 22.5602C23.1928 21.9277 23.8253 21.506 24.6687 21.2952C25.3012 21.0843 26.1446 20.8735 27.8313 20.6627C29.7289 20.6627 30.3614 20.6627 35 20.6627ZM35 17.5C30.1506 17.5 29.7289 17.5 27.8313 17.5C25.9337 17.5 24.6687 17.9217 23.6145 18.3434C22.5602 18.7651 21.506 19.3976 20.4518 20.4518C19.3976 21.506 18.9759 22.3494 18.3434 23.6145C17.9217 24.6687 17.7108 25.9337 17.5 27.8313C17.5 29.7289 17.5 30.3614 17.5 35C17.5 39.8494 17.5 40.2711 17.5 42.1687C17.5 44.0663 17.9217 45.3313 18.3434 46.3855C18.7651 47.4398 19.3976 48.494 20.4518 49.5482C21.506 50.6024 22.3494 51.0241 23.6145 51.6566C24.6687 52.0783 25.9337 52.2892 27.8313 52.5C29.7289 52.5 30.3614 52.5 35 52.5C39.6386 52.5 40.2711 52.5 42.1687 52.5C44.0663 52.5 45.3313 52.0783 46.3855 51.6566C47.4398 51.2349 48.494 50.6024 49.5482 49.5482C50.6024 48.494 51.0241 47.6506 51.6566 46.3855C52.0783 45.3313 52.2892 44.0663 52.5 42.1687C52.5 40.2711 52.5 39.6386 52.5 35C52.5 30.3614 52.5 29.7289 52.5 27.8313C52.5 25.9337 52.0783 24.6687 51.6566 23.6145C51.2349 22.5602 50.6024 21.506 49.5482 20.4518C48.494 19.3976 47.6506 18.9759 46.3855 18.3434C45.3313 17.9217 44.0663 17.7108 42.1687 17.5C40.2711 17.5 39.8494 17.5 35 17.5Z"
    fill="white" />
  <path
    d="M35 25.9337C29.9398 25.9337 25.9337 29.9398 25.9337 35C25.9337 40.0602 29.9398 44.0663 35 44.0663C40.0602 44.0663 44.0663 40.0602 44.0663 35C44.0663 29.9398 40.0602 25.9337 35 25.9337ZM35 40.9036C31.8374 40.9036 29.0964 38.3735 29.0964 35C29.0964 31.8374 31.6265 29.0964 35 29.0964C38.1627 29.0964 40.9036 31.6265 40.9036 35C40.9036 38.1627 38.1627 40.9036 35 40.9036Z"
    fill="white" />
  <path
    d="M44.2771 27.8313C45.4416 27.8313 46.3855 26.8873 46.3855 25.7229C46.3855 24.5584 45.4416 23.6145 44.2771 23.6145C43.1127 23.6145 42.1687 24.5584 42.1687 25.7229C42.1687 26.8873 43.1127 27.8313 44.2771 27.8313Z"
    fill="white" />
  <defs>
    <radialGradient id="paint0_radial_1115_10507" cx="0" cy="0" r="1" gradientUnits="userSpaceOnUse"
      gradientTransform="translate(71.4082 1.42188) scale(161.651)">
      <stop stop-color="#F9ED32" />
      <stop offset="0.36" stop-color="#EE2A7B" />
      <stop offset="0.44" stop-color="#D22A8A" />
      <stop offset="0.6" stop-color="#8B2AB2" />
      <stop offset="0.83" stop-color="#1B2AF0" />
      <stop offset="0.88" stop-color="#002AFF" />
    </radialGradient>
  </defs>
</svg>