<svg width="690" height="225" viewBox="0 0 690 225" fill="none" xmlns="http://www.w3.org/2000/svg">
<path d="M327.737 2.48591L221.121 102.802L228.411 65.3687C229.521 59.8608 225.984 56.3272 215.155 56.3272C205.212 56.3272 199.689 59.4138 198.362 65.3687L179.145 164.088C178.039 169.601 181.575 173.121 192.396 173.121C198.802 173.121 203.351 171.832 206.147 169.327C206.29 169.358 206.518 169.214 206.95 168.718L231.106 141.386L244.136 164.258C248.929 173.121 257.51 173.121 267.446 173.121C278.279 173.121 280.502 169.6 277.366 164.088L251.621 118.166L342.289 15.585C344.351 13.2056 344.652 8.67407 342.223 6.085C341.098 4.89429 338.532 2.9835 337.265 1.78471C336.037 0.633783 334.548 0 332.979 0C331.236 0 329.399 0.776722 327.737 2.48524L327.737 2.48591Z" fill="#FFAE2D"/>
<path d="M13.0106 97.9827L0.192932 164.089C-0.912393 169.602 2.63006 173.125 13.4535 173.125C23.396 173.125 28.9219 170.043 30.2449 164.089L43.064 97.9827C45.0515 87.4032 53.0045 81.0121 61.8478 81.0121C67.3582 81.0121 72.0005 83.2135 75.3158 87.8442C78.6284 92.0352 85.4794 91.1506 92.5427 85.2012C98.5175 80.1397 100.286 75.0653 97.6353 70.2223C91.2271 60.3029 80.401 55.4531 64.7128 55.4531C38.2026 55.4531 18.0891 72.2019 13.0106 97.9827Z" fill="white"/>
<path d="M309.925 64.7127C300.86 71.538 295.342 79.4771 293.357 88.9502L293.135 90.4915C292.255 96.0047 295.567 99.5256 306.388 99.5256C316.559 99.5256 322.079 96.4389 323.182 90.4915L323.404 89.8287C324.506 83.8839 330.475 79.0314 338.433 79.0314C346.381 79.0314 350.584 83.4396 349.034 91.1522L348.601 94.4614C347.931 97.3228 344.391 99.3064 337.767 100.852L318.546 105.256C298.442 109.879 286.724 120.457 283.416 136.766C281.426 146.682 283.856 155.27 290.269 162.552C296.892 169.601 306.612 173.122 319.423 173.122C332.022 173.122 343.065 169.601 352.566 162.769C362.294 155.94 368.479 145.804 371.13 132.798L378.425 95.3406C383.055 70.445 369.134 54.5762 342.628 54.5762C330.034 54.5762 318.991 57.8853 309.925 64.7147L309.925 64.7127ZM313.241 137.654C314.346 132.358 318.101 128.837 324.507 127.298L336.655 124.208C339.976 123.323 342.185 122.443 343.291 121.56L340.638 134.778C339.096 143.379 333.35 148.669 324.732 148.669C316.779 148.669 312.141 144.476 313.241 137.653L313.241 137.654Z" fill="white"/>
<path d="M115.205 65.5952C105.257 72.8689 99.0739 82.7829 96.6435 95.7842L89.7932 131.913C87.1444 144.917 89.3456 155.058 96.4211 162.334C103.493 169.602 113.212 173.123 125.366 173.123C137.513 173.123 148.342 169.602 158.285 162.334C168.231 155.058 174.636 144.917 177.29 131.913L184.135 95.7842C186.566 82.7829 184.353 72.6397 177.29 65.3707C170.221 58.0997 160.715 54.5762 148.564 54.5762C136.416 54.5762 125.141 58.3195 115.204 65.5952H115.205ZM119.615 132.142L126.916 95.5624C129.336 75.2921 159.616 75.2921 154.305 95.5624L147.02 132.142C145.798 142.278 137.625 147.345 130.419 147.345C123.21 147.345 116.965 142.278 119.615 132.142H119.615Z" fill="white"/>
<path d="M468.575 88.4669C460.965 88.4669 454.719 82.5633 445.207 82.5633C427.875 82.5633 417.763 97.7397 415.818 113.551C413.948 128.727 421.353 144.112 437.627 144.112C445.45 144.112 457.428 137.788 461.022 137.788C468.421 137.788 473.4 143.692 472.491 151.071C470.544 166.881 443.714 171.938 432.723 171.938C399.966 171.938 381.491 145.169 385.384 113.552C389.199 82.5639 415.027 54.7422 447.153 54.7422C459.2 54.7422 483.779 59.3796 481.989 73.9249C481.21 80.2466 475.759 88.4669 468.575 88.4669Z" fill="white"/>
<path d="M539.783 80.0369C526.257 80.0369 515.899 90.3635 512.839 103.224H561.237C561.208 89.7317 554.155 80.0369 539.784 80.0369H539.783ZM537.024 145.379C552.664 145.379 564.948 133.156 572.98 133.156C579.529 133.156 584.644 139.69 583.838 146.223C582.258 159.082 553.833 171.938 531.007 171.938C496.769 171.938 477.002 147.068 481.128 113.552C484.942 82.566 510.774 54.7422 542.899 54.7422C575.87 54.7422 593.952 84.6729 590.837 109.967C589.722 119.033 585.164 123.459 575.863 123.459H510.98C511.435 138.636 522.651 145.379 537.024 145.379H537.024Z" fill="white"/>
<path d="M629.081 7.10938C638.172 7.10938 643.466 13.8524 642.221 23.9687L626.238 153.817C624.992 163.933 618.03 170.679 608.942 170.679C599.854 170.679 594.556 163.932 595.802 153.817L611.788 23.9687C613.034 13.8524 619.994 7.10938 629.081 7.10938Z" fill="white"/>
<path d="M675.999 7.10938C685.089 7.10938 690.387 13.8524 689.141 23.9687L673.158 153.817C671.912 163.933 664.951 170.679 655.86 170.679C646.775 170.679 641.474 163.932 642.72 153.817L658.705 23.9687C659.951 13.8524 666.911 7.10938 675.999 7.10938Z" fill="white"/>
<path d="M387.163 194.471H390.432V223.936H387.163V194.471Z" fill="#FFAE2D"/>
<path d="M404.616 194.471H407.162L422.789 218.272C422.725 217.253 422.692 215.872 422.692 214.129V194.471H425.964V223.938H423.173L407.694 200.532C407.823 201.895 407.884 203.29 407.884 204.716V223.938H404.616V194.471V194.471Z" fill="#FFAE2D"/>
<path d="M438.802 220.314C441.976 221.273 444.812 221.752 447.311 221.752C449.14 221.752 450.7 221.294 451.998 220.378C453.296 219.463 453.947 218.161 453.947 216.478C453.947 215.403 453.667 214.459 453.103 213.645C452.544 212.831 451.823 212.17 450.942 211.663C450.06 211.153 449.081 210.681 448.01 210.245L444.762 208.872C443.673 208.392 442.687 207.856 441.807 207.26C440.924 206.662 440.202 205.863 439.644 204.863C439.08 203.86 438.801 202.691 438.801 201.355C438.801 199.115 439.698 197.313 441.493 195.947C443.287 194.581 445.611 193.9 448.465 193.9C451.092 193.9 453.77 194.364 456.492 195.296L455.676 197.909C452.759 197.067 450.355 196.645 448.465 196.645C446.509 196.645 444.971 197.044 443.849 197.846C442.726 198.642 442.165 199.783 442.165 201.265C442.165 202.631 442.687 203.765 443.727 204.665C444.771 205.568 446.037 206.308 447.525 206.89C449.018 207.472 450.499 208.088 451.975 208.741C453.448 209.394 454.706 210.361 455.748 211.638C456.788 212.918 457.31 214.503 457.31 216.392C457.31 218.949 456.357 220.939 454.449 222.364C452.542 223.786 450.164 224.499 447.309 224.499C444.52 224.499 441.492 224.006 438.224 223.017L438.8 220.315L438.802 220.314Z" fill="#FFAE2D"/>
<path d="M469.335 194.471H472.603V214.521C472.603 216.614 473.333 218.343 474.792 219.709C476.25 221.075 478.116 221.757 480.394 221.757C482.636 221.757 484.478 221.075 485.922 219.709C487.364 218.343 488.085 216.614 488.085 214.521V194.471H491.306V214.655C491.306 217.532 490.249 219.892 488.135 221.735C486.015 223.582 483.437 224.505 480.394 224.505C477.283 224.505 474.664 223.583 472.532 221.735C470.401 219.891 469.335 217.532 469.335 214.655V194.471Z" fill="#FFAE2D"/>
<path d="M505.252 194.471H508.521V221.191H522.944L522.61 223.937H505.252V194.471Z" fill="#FFAE2D"/>
<path d="M550.063 212.953L546.267 202.099C546.041 201.516 545.561 200.006 544.823 197.565C544.44 198.96 543.957 200.471 543.381 202.099L539.535 212.953H550.063ZM542.948 194.471H546.698L557.324 223.937H553.957L550.975 215.569H538.619L535.69 223.937H532.323L542.948 194.471Z" fill="#FFAE2D"/>
<path d="M571.748 197.217H562.616V194.471H584.154V197.217H575.017V223.936H571.748V197.217Z" fill="#FFAE2D"/>
<path d="M595.693 194.471H598.962V223.936H595.693V194.471Z" fill="#FFAE2D"/>
<path d="M617.765 219.445C619.303 220.983 621.336 221.755 623.871 221.755C626.403 221.755 628.427 220.983 629.952 219.445C631.473 217.903 632.237 215.653 632.237 212.686V205.799C632.237 202.779 631.473 200.496 629.952 198.958C628.427 197.417 626.403 196.647 623.871 196.647C621.336 196.647 619.303 197.425 617.765 198.98C616.227 200.533 615.455 202.806 615.455 205.799V212.686C615.455 215.652 616.227 217.903 617.765 219.445ZM612.188 205.669C612.188 201.892 613.285 198.988 615.48 196.951C617.678 194.917 620.474 193.9 623.871 193.9C627.235 193.9 630.015 194.917 632.212 196.951C634.406 198.988 635.505 201.892 635.505 205.669V212.817C635.505 216.597 634.406 219.49 632.212 221.494C630.015 223.499 627.235 224.502 623.871 224.502C620.474 224.502 617.678 223.499 615.48 221.494C613.285 219.489 612.188 216.597 612.188 212.817V205.669Z" fill="#FFAE2D"/>
<path d="M648.732 194.471H651.279L666.906 218.272C666.839 217.253 666.81 215.872 666.81 214.129V194.471H670.078V223.938H667.289L651.808 200.532C651.938 201.895 652.001 203.29 652.001 204.716V223.938H648.732V194.471V194.471Z" fill="#FFAE2D"/>
</svg>
