<svg width="210" height="210" viewBox="0 0 210 210" fill="none" xmlns="http://www.w3.org/2000/svg">
<path d="M36.095 1.5H117.827L181.327 64.999V206.645C181.327 207.136 181.131 207.608 180.783 207.956C180.435 208.304 179.963 208.5 179.471 208.5H36.095C35.8513 208.5 35.6101 208.452 35.385 208.358C35.1599 208.265 34.9548 208.129 34.7825 207.957C34.6102 207.785 34.4743 207.58 34.3811 207.354C34.2879 207.129 34.2395 206.888 34.2395 206.645V3.35547C34.2395 3.1118 34.2879 2.87064 34.3811 2.64551C34.4743 2.42038 34.6102 2.21527 34.7825 2.04297C34.9548 1.87067 35.1599 1.73483 35.385 1.6416C35.6101 1.54838 35.8513 1.49995 36.095 1.5Z" fill="white" stroke="#21597B" stroke-width="3"/>
<path d="M118.449 0L182.827 64.3781H132.132C124.575 64.3781 118.448 58.2516 118.448 50.6941V0H118.449Z" fill="#EDE0AF"/>
<path d="M96.4186 37.8996H51.8653C49.3441 37.8996 47.3003 35.8558 47.3003 33.3346C47.3003 30.8133 49.3441 28.7695 51.8653 28.7695H96.4186C98.9398 28.7695 100.984 30.8133 100.984 33.3346C100.984 35.8558 98.9398 37.8996 96.4186 37.8996ZM100.984 63.2157C100.984 60.6944 98.9398 58.6506 96.4186 58.6506H51.8653C49.3441 58.6506 47.3003 60.6944 47.3003 63.2157C47.3003 65.7369 49.3441 67.7807 51.8653 67.7807H96.4186C98.9398 67.7807 100.984 65.7369 100.984 63.2157ZM100.984 93.0972C100.984 90.576 98.9398 88.5322 96.4186 88.5322H51.8653C49.3441 88.5322 47.3003 90.576 47.3003 93.0972C47.3003 95.6184 49.3441 97.6622 51.8653 97.6622H96.4186C98.9398 97.6618 100.984 95.6184 100.984 93.0972ZM139.554 122.978C139.554 120.457 137.51 118.413 134.989 118.413H51.8653C49.3441 118.413 47.3003 120.457 47.3003 122.978C47.3003 125.5 49.3441 127.543 51.8653 127.543H134.989C137.51 127.543 139.554 125.5 139.554 122.978ZM154.932 93.0972C154.932 90.576 152.888 88.5322 150.367 88.5322H119.611C117.09 88.5322 115.046 90.576 115.046 93.0972C115.046 95.6184 117.09 97.6622 119.611 97.6622H150.367C152.888 97.6618 154.932 95.6184 154.932 93.0972ZM123.014 152.86C123.014 150.339 120.97 148.295 118.449 148.295H51.8653C49.3441 148.295 47.3003 150.339 47.3003 152.86C47.3003 155.381 49.3441 157.425 51.8653 157.425H118.449C120.97 157.424 123.014 155.381 123.014 152.86ZM150.17 182.741C150.17 180.22 148.127 178.176 145.605 178.176H51.8653C49.3441 178.176 47.3003 180.22 47.3003 182.741C47.3003 185.262 49.3441 187.306 51.8653 187.306H145.605C148.126 187.306 150.17 185.262 150.17 182.741Z" fill="#0F0E0E"/>
</svg>
