<svg width="668" height="224" viewBox="0 0 668 224" fill="none" xmlns="http://www.w3.org/2000/svg">
<path d="M12.6033 99.4591L0.18466 162.774C-0.878675 168.053 2.55209 171.43 13.0343 171.43C22.6603 171.43 28.016 168.478 29.2976 162.774L41.7164 99.4591C43.6416 89.3242 51.3422 83.2058 59.9105 83.2058C65.2495 83.2058 69.7491 85.3132 72.9615 89.749C76.1683 93.7599 82.8059 92.916 89.6504 87.2113C95.4372 82.3673 97.1496 77.5065 94.5752 72.8667C88.3743 63.3717 77.8865 58.7264 62.6864 58.7264C37.0096 58.7264 17.5226 74.7646 12.6033 99.4591ZM300.23 67.5977C291.443 74.1355 286.099 81.7382 284.179 90.8083L283.961 92.287C283.11 97.5668 286.322 100.938 296.799 100.938C306.655 100.938 312.005 97.9806 313.068 92.287L313.286 91.6525C314.35 85.9589 320.137 81.308 327.843 81.308C335.544 81.308 339.618 85.5341 338.113 92.916L337.693 96.0881C337.044 98.8301 333.619 100.728 327.199 102.212L308.58 106.427C289.104 110.857 277.754 120.987 274.553 136.606C272.622 146.106 274.978 154.327 281.19 161.306C287.604 168.059 297.017 171.433 309.431 171.43C321.631 171.43 332.331 168.059 341.538 161.51C350.957 154.972 356.95 145.262 359.519 132.805L366.587 96.9269C371.07 73.0819 357.588 57.8879 331.906 57.8879C319.706 57.8879 309.011 61.0544 300.23 67.5977ZM303.442 137.456C304.511 132.385 308.149 129.014 314.355 127.536L326.125 124.578C329.337 123.732 331.479 122.887 332.55 122.041L329.975 134.702C328.487 142.939 322.924 148.01 314.574 148.01C306.867 148.01 302.373 143.993 303.437 137.456M111.6 68.4365C101.963 75.4046 95.9744 84.8994 93.6183 97.3515L86.9864 131.955C84.412 144.413 86.5518 154.125 93.4056 161.091C100.256 168.053 109.669 171.43 121.444 171.43C133.214 171.43 143.701 168.053 153.333 161.091C162.97 154.123 169.171 144.412 171.745 131.96L178.377 97.3515C180.728 84.8994 178.584 75.184 171.745 68.2214C164.895 61.2588 155.683 57.8879 143.92 57.8879C132.15 57.8879 121.226 61.4739 111.6 68.4365ZM115.875 132.176L122.944 97.142C125.294 77.7218 154.62 77.7218 149.477 97.142L142.425 132.176C141.239 141.886 133.32 146.741 126.341 146.741C119.357 146.741 113.301 141.886 115.875 132.176ZM453.915 90.345C446.545 90.345 440.489 84.6952 431.278 84.6952C414.488 84.6952 404.694 99.2328 402.808 114.377C400.995 128.909 408.17 143.645 423.935 143.645C431.513 143.645 443.114 137.588 446.601 137.588C453.764 137.588 458.588 143.243 457.71 150.31C455.824 165.455 429.834 170.293 419.183 170.293C387.451 170.293 369.554 144.655 373.326 114.372C377.019 84.6899 402.036 58.0421 433.163 58.0421C444.832 58.0421 468.645 62.489 466.91 76.4142C466.155 82.472 460.872 90.345 453.915 90.345ZM522.898 82.2734C509.791 82.2734 499.756 92.1654 496.796 104.48H543.678C543.65 91.5585 536.816 82.2734 522.898 82.2734ZM520.223 144.854C535.372 144.854 547.271 133.152 555.055 133.152C561.396 133.152 566.349 139.409 565.571 145.665C564.043 157.979 536.503 170.293 514.391 170.293C481.226 170.293 462.075 146.47 466.076 114.372C469.77 84.6954 494.792 58.0421 525.914 58.0421C557.853 58.0421 575.371 86.7146 572.354 110.94C571.274 119.624 566.853 123.861 557.848 123.861H494.994C495.43 138.399 506.299 144.854 520.223 144.854ZM609.397 12.4213C618.2 12.4213 623.333 18.8764 622.124 28.5645L606.644 152.931C605.435 162.625 598.697 169.085 589.888 169.085C581.085 169.085 575.953 162.625 577.162 152.931L592.647 28.5645C593.85 18.8764 600.594 12.4213 609.397 12.4213ZM654.852 12.4213C663.655 12.4213 668.787 18.8764 667.578 28.5645L652.098 152.931C650.89 162.625 644.146 169.085 635.337 169.085C626.539 169.085 621.402 162.625 622.611 152.931L638.096 28.5645C639.305 18.8764 646.049 12.4213 654.852 12.4213Z" fill="#21597B"/>
<path d="M323.118 2.42731L219.301 100.321L226.395 63.7889C227.48 58.415 224.032 54.9635 213.489 54.9635C203.807 54.9635 198.429 57.9821 197.135 63.7889L178.424 160.126C177.344 165.505 180.787 168.94 191.33 168.94C197.563 168.94 201.996 167.686 204.719 165.241C204.859 165.269 205.079 165.129 205.501 164.645L229.016 137.972L241.708 160.289C246.377 168.945 254.731 168.945 264.408 168.945C274.956 168.945 277.122 165.505 274.067 160.126L248.999 115.313L337.289 15.2099C339.297 12.8884 339.59 8.46466 337.221 5.9351C336.13 4.77711 333.632 2.91069 332.394 1.74147C331.202 0.617218 329.75 -0.00109863 328.22 -0.00109863C326.521 -0.00109863 324.732 0.757797 323.118 2.42731Z" fill="#FFAE2D"/>
<path d="M391.614 189.299H395.275V210.575L411.503 189.299H415.555V216.151H411.9V194.94L395.66 216.156H391.614V189.299ZM425.894 208.572L429.75 207.689C430.04 208.996 430.819 210.3 432.086 211.603C433.353 212.913 435.034 213.57 437.132 213.574C439.267 213.574 440.951 213.09 442.184 212.123C443.413 211.163 444.028 209.997 444.028 208.626C444.028 207.146 443.38 205.97 442.084 205.096C440.783 204.223 439.008 203.786 436.758 203.786H434.813V200.695C436.676 200.695 438.101 200.599 439.088 200.408C440.068 200.22 440.938 199.736 441.698 198.957C442.454 198.184 442.832 197.302 442.832 196.309C442.832 195.14 442.316 194.123 441.284 193.256C440.249 192.39 438.85 191.957 437.087 191.957C435.549 191.961 434.236 192.298 433.148 192.97C432.052 193.648 431.302 194.547 430.895 195.665C430.471 196.784 430.26 197.616 430.264 198.161L426.402 197.392C427.356 191.693 430.933 188.844 437.132 188.844C440.112 188.844 442.475 189.572 444.218 191.026C445.969 192.488 446.845 194.196 446.845 196.153C446.845 198.65 445.5 200.592 442.81 201.978C444.363 202.36 445.662 203.131 446.705 204.289C447.756 205.455 448.279 206.85 448.275 208.474C448.275 210.784 447.262 212.717 445.235 214.272C443.197 215.835 440.5 216.614 437.143 216.611C431.383 216.611 427.634 213.931 425.894 208.572ZM456.977 203.077C456.977 198.612 458.336 195.12 461.056 192.601C463.768 190.082 467.273 188.822 471.568 188.822C474.381 188.822 476.918 189.414 479.18 190.598C481.437 191.782 483.162 193.435 484.354 195.557C485.539 197.672 486.132 200.076 486.132 202.768C486.128 205.486 485.504 207.922 484.26 210.077C483 212.22 481.231 213.845 478.951 214.949C476.659 216.057 474.191 216.611 471.546 216.611C468.677 216.611 466.114 216.001 463.856 214.781C461.598 213.561 459.888 211.895 458.726 209.784C457.556 207.673 456.973 205.441 456.977 203.077ZM461.129 203.125C461.129 206.359 462.118 208.907 464.096 210.769C466.063 212.632 468.539 213.565 471.523 213.569C474.56 213.569 477.064 212.628 479.034 210.748C480.987 208.868 481.963 206.197 481.963 202.736C481.963 200.552 481.545 198.647 480.711 197.019C479.873 195.391 478.643 194.126 477.022 193.224C475.413 192.325 473.601 191.878 471.585 191.881C468.735 191.881 466.28 192.742 464.219 194.464C462.155 196.196 461.125 199.083 461.129 203.125ZM498.443 189.294H517.544V216.145H513.515V192.466H502.489V206.293C502.489 209.1 502.34 211.157 502.042 212.464C501.744 213.77 501.116 214.786 500.159 215.512C499.205 216.244 497.99 216.609 496.515 216.605C495.628 216.605 494.561 216.461 493.313 216.172L494.006 213.016C494.669 213.258 495.235 213.381 495.705 213.384C496.621 213.384 497.31 213.079 497.772 212.47C498.219 211.863 498.443 210.437 498.443 208.193V189.294ZM553.685 216.145V189.294H540.172C537.456 189.297 535.392 189.539 533.98 190.019C532.564 190.499 531.433 191.351 530.588 192.574C529.731 193.798 529.303 195.148 529.303 196.624C529.303 198.522 530.005 200.125 531.409 201.431C532.806 202.745 534.971 203.578 537.903 203.932C536.83 204.387 536.018 204.833 535.466 205.269C534.289 206.215 533.172 207.406 532.113 208.842L526.821 216.151H531.89L535.919 210.569C537.104 208.949 538.078 207.711 538.842 206.855C539.598 206.004 540.28 205.408 540.887 205.069C541.491 204.73 542.105 204.491 542.731 204.354C543.178 204.271 543.927 204.23 544.978 204.23H549.65V216.151L553.685 216.145ZM549.65 201.15H540.982C539.138 201.15 537.696 200.978 536.657 200.635C535.614 200.303 534.822 199.767 534.282 199.027C533.742 198.291 533.471 197.49 533.471 196.624C533.471 195.357 533.993 194.31 535.036 193.484C536.091 192.672 537.747 192.266 540.004 192.266H549.65V201.15ZM565.734 189.294H569.763V212.978H585.651V189.294H589.708V212.978H592.502V223.605H588.926V216.151H565.734V189.294ZM602.668 189.294H606.322V210.569L622.551 189.294H626.609V216.145H622.948V194.935L606.708 216.151H602.668V189.294ZM662.732 216.145V189.294H649.219C646.503 189.297 644.439 189.539 643.027 190.019C641.612 190.499 640.481 191.351 639.635 192.574C638.778 193.798 638.352 195.148 638.355 196.624C638.355 198.522 639.056 200.125 640.457 201.431C641.854 202.745 644.019 203.578 646.951 203.932C645.878 204.387 645.065 204.833 644.514 205.269C643.34 206.215 642.224 207.406 641.166 208.842L635.869 216.151H640.943L644.972 210.569C646.157 208.949 647.131 207.711 647.895 206.855C648.651 206.004 649.331 205.408 649.935 205.069C650.538 204.73 651.153 204.491 651.779 204.354C652.226 204.271 652.975 204.23 654.026 204.23H658.697V216.151L662.732 216.145ZM658.697 201.15H650.035C648.184 201.15 646.742 200.978 645.71 200.635C644.667 200.303 643.873 199.767 643.329 199.027C642.789 198.291 642.521 197.49 642.524 196.624C642.521 195.357 643.042 194.31 644.089 193.484C645.14 192.672 646.794 192.266 649.052 192.266H658.697V201.15Z" fill="#FFAE2D"/>
</svg>
